<?xml version="1.0" encoding="UTF-8"?><svg id="Layer_1" xmlns="http://www.w3.org/2000/svg" viewBox="0 0 200 200"><rect width="200" height="200" fill="#002d56" stroke-width="0"/><path d="M93.795,89.795c-2.627,0-4.563-.534-5.809-1.601-1.256-1.078-1.884-2.962-1.916-5.673h-.283v8.164h7.662l.639-.9c-.095.01-.199.01-.293.01ZM101.195,78.229c-.995-1.172-2.02-1.999-3.078-2.491-1.068-.492-3.035-1.225-5.924-2.198-1.675-.659-2.774-1.382-3.308-2.146-.523-.775-.796-1.675-.796-2.7,0-1.549.565-2.878,1.696-3.977,1.12-1.099,2.648-1.654,4.564-1.654,1.151,0,2.177.199,3.087.607.9.398,1.717.963,2.418,1.706.712.733,1.057,1.109,1.057,1.12l.23-.031-1.329-3.517c-.052,0-.105-.01-.157-.031-.126-.073-.733-.209-1.832-.429-1.099-.209-2.114-.324-3.056-.324-2.429,0-4.386.743-5.882,2.219-1.497,1.476-2.24,3.297-2.24,5.464,0,1.183.293,2.345.879,3.485.587,1.13,1.308,1.989,2.188,2.554.869.565,2.376,1.225,4.532,1.978,2.156.743,3.621,1.371,4.396,1.884.618.408,1.12.869,1.518,1.382l1.538-2.198c-.146-.251-.314-.481-.502-.701Z" fill="#fff" stroke-width="0"/><path d="M115.037,88.246c-.596-.953-1.538-1.748-2.826-2.386-1.057-.513-2.627-.827-4.721-.921l-.69.994c1.235.105,2.198.366,2.899.775.984.555,1.738,1.371,2.282,2.449.544,1.068.806,2.303.806,3.684,0,1.779-.555,3.224-1.664,4.312-1.11,1.099-2.565,1.643-4.344,1.643v.283c2.816.052,5.045-.523,6.678-1.717,1.643-1.193,2.46-2.983,2.46-5.37,0-1.549-.293-2.805-.88-3.747ZM103.67,112.33c-.304-.262-.46-1.068-.46-2.428v-18.861l-3.235,4.605v15.271c0,1.204-.67,1.811-1.989,1.811v.283h7.421v-.283c-.848,0-1.434-.136-1.738-.398Z" fill="#fff" stroke-width="0"/><rect x="74.151" y="89.496" width="48.709" height="1.046" transform="translate(-31.763 118.949) rotate(-54.944)" fill="#fff" stroke-width="0"/><path d="M15.776,133.84c-.62,0-1.22-.036-1.802-.109s-1.104-.207-1.563-.403c-.46-.195-.824-.478-1.092-.846s-.403-.84-.403-1.413c0-.064.002-.118.006-.164.005-.045.007-.077.007-.095h.969c-.009.055-.016.114-.021.178-.004.064-.006.146-.006.246,0,.382.155.706.464.969.309.264.758.464,1.345.601.587.137,1.281.205,2.082.205.391,0,.771-.018,1.14-.055.368-.036.707-.1,1.016-.191s.582-.207.819-.348c.237-.141.421-.312.554-.512.131-.2.197-.432.197-.696,0-.373-.114-.674-.341-.901-.227-.227-.539-.412-.935-.553-.396-.141-.84-.255-1.331-.341-.491-.086-.997-.168-1.515-.246-.519-.077-1.024-.171-1.516-.28-.492-.109-.935-.255-1.331-.437-.396-.182-.708-.423-.935-.723-.227-.3-.341-.678-.341-1.133,0-.318.077-.623.233-.915.155-.291.407-.553.757-.785.35-.232.815-.414,1.393-.546.578-.132,1.299-.198,2.163-.198.874,0,1.591.078,2.15.232.559.155.997.357,1.31.607.315.25.53.517.648.799.118.282.178.551.178.806v.287h-.956v-.314c0-.273-.121-.528-.362-.764-.242-.237-.599-.432-1.071-.587-.474-.155-1.07-.232-1.789-.232-.792,0-1.461.061-2.007.184s-.96.298-1.242.526c-.282.228-.423.514-.423.86,0,.327.116.592.348.792.233.2.546.362.942.485.396.123.837.227,1.325.314.486.087.99.171,1.508.253.519.082,1.024.18,1.516.293.492.114.935.269,1.331.464.396.196.71.446.942.751.233.305.349.69.349,1.154,0,.692-.198,1.242-.594,1.652s-.949.701-1.658.874c-.71.173-1.529.259-2.457.259Z" fill="#fff" stroke-width="0"/><path d="M26.151,133.676v-8.519h-4.314v-.846h9.583v.846h-4.3v8.519h-.969Z" fill="#fff" stroke-width="0"/><path d="M33.414,133.676v-9.365h6.703c.582,0,1.08.116,1.495.348.414.232.73.553.948.963.219.41.328.874.328,1.392,0,.61-.157,1.147-.471,1.611-.314.464-.767.787-1.359.969l2.062,4.082h-1.078l-1.979-3.932h-5.679v3.932h-.969ZM34.383,128.912h5.583c.61,0,1.086-.177,1.427-.532.341-.355.512-.805.512-1.351,0-.373-.078-.701-.233-.983-.155-.282-.375-.503-.662-.662-.286-.159-.635-.239-1.045-.239h-5.583v3.768Z" fill="#fff" stroke-width="0"/><path d="M44.445,133.676l4.819-9.365h1.174l4.819,9.365h-1.064l-1.311-2.553h-6.102l-1.31,2.553h-1.024ZM47.188,130.291h5.269l-1.638-3.208c-.063-.118-.137-.259-.218-.423-.082-.164-.166-.334-.252-.512-.087-.177-.169-.352-.246-.526-.077-.173-.148-.318-.211-.437h-.109c-.1.209-.212.439-.334.689-.123.25-.239.485-.348.703s-.196.387-.26.505l-1.652,3.208Z" fill="#fff" stroke-width="0"/><path d="M56.294,133.676l4.819-9.365h1.174l4.82,9.365h-1.065l-1.31-2.553h-6.102l-1.311,2.553h-1.024ZM59.038,130.291h5.27l-1.638-3.208c-.064-.118-.137-.259-.219-.423-.082-.164-.166-.334-.253-.512-.086-.177-.169-.352-.245-.526-.078-.173-.148-.318-.212-.437h-.109c-.1.209-.212.439-.335.689-.123.25-.239.485-.348.703-.109.218-.196.387-.259.505l-1.652,3.208Z" fill="#fff" stroke-width="0"/><path d="M70.546,133.676v-8.519h-4.314v-.846h9.583v.846h-4.3v8.519h-.969Z" fill="#fff" stroke-width="0"/><path d="M77.809,133.676v-9.365h.969v9.365h-.969Z" fill="#fff" stroke-width="0"/><path d="M80.908,133.676l4.887-4.887-4.465-4.478h1.352l3.741,3.754h.095l3.741-3.754h1.27l-4.437,4.423,4.928,4.942h-1.352l-4.191-4.205h-.123l-4.178,4.205h-1.27Z" fill="#fff" stroke-width="0"/><path d="M98.874,133.676v-9.365h6.43c.582,0,1.08.121,1.495.362.414.241.732.571.956.99.223.419.334.896.334,1.433s-.109,1.015-.327,1.433-.534.749-.949.99-.912.362-1.495.362h-5.475v3.795h-.969ZM99.843,129.035h5.31c.646,0,1.136-.18,1.468-.539.333-.359.499-.826.499-1.399,0-.382-.079-.721-.239-1.017-.159-.296-.384-.526-.676-.689-.291-.164-.642-.246-1.052-.246h-5.31v3.891Z" fill="#fff" stroke-width="0"/><path d="M108.184,133.676l4.819-9.365h1.174l4.819,9.365h-1.065l-1.311-2.553h-6.102l-1.311,2.553h-1.024ZM110.929,130.291h5.269l-1.638-3.208c-.063-.118-.137-.259-.218-.423-.082-.164-.166-.334-.253-.512-.086-.177-.169-.352-.246-.526-.077-.173-.148-.318-.212-.437h-.109c-.1.209-.212.439-.335.689-.123.25-.239.485-.348.703-.11.218-.196.387-.26.505l-1.652,3.208Z" fill="#fff" stroke-width="0"/><path d="M121.112,133.676v-9.365h6.703c.582,0,1.08.116,1.495.348.414.232.731.553.949.963.219.41.328.874.328,1.392,0,.61-.157,1.147-.471,1.611-.314.464-.767.787-1.358.969l2.062,4.082h-1.079l-1.979-3.932h-5.679v3.932h-.969ZM122.082,128.912h5.583c.61,0,1.085-.177,1.426-.532.341-.355.512-.805.512-1.351,0-.373-.077-.701-.232-.983-.155-.282-.375-.503-.662-.662-.287-.159-.635-.239-1.045-.239h-5.583v3.768Z" fill="#fff" stroke-width="0"/><path d="M136.198,133.676v-8.519h-4.314v-.846h9.583v.846h-4.3v8.519h-.969Z" fill="#fff" stroke-width="0"/><path d="M143.46,133.676v-9.365h.997l6.526,6.867c.091.091.193.198.307.321.114.123.225.243.334.362.109.118.2.223.273.314h.095v-7.863h.956v9.365h-.887l-6.58-6.935c-.191-.191-.378-.387-.559-.587-.182-.2-.323-.355-.423-.464h-.096c.01.173.014.4.014.683v7.304h-.956Z" fill="#fff" stroke-width="0"/><path d="M156.142,133.676v-9.365h9.01v.833h-8.041v3.29h7.304v.847h-7.304v3.563h8.151v.833h-9.12Z" fill="#fff" stroke-width="0"/><path d="M168.047,133.676v-9.365h6.703c.582,0,1.08.116,1.494.348.414.232.731.553.949.963s.327.874.327,1.392c0,.61-.157,1.147-.471,1.611s-.767.787-1.358.969l2.062,4.082h-1.079l-1.979-3.932h-5.679v3.932h-.969ZM169.017,128.912h5.583c.61,0,1.085-.177,1.426-.532.341-.355.512-.805.512-1.351,0-.373-.077-.701-.232-.983-.155-.282-.375-.503-.662-.662-.287-.159-.635-.239-1.044-.239h-5.583v3.768Z" fill="#fff" stroke-width="0"/><path d="M184.415,133.84c-.619,0-1.22-.036-1.802-.109s-1.103-.207-1.563-.403c-.46-.195-.824-.478-1.092-.846-.269-.368-.403-.84-.403-1.413,0-.064.002-.118.007-.164.004-.045.006-.077.006-.095h.969c-.009.055-.016.114-.02.178-.005.064-.007.146-.007.246,0,.382.155.706.464.969.309.264.758.464,1.345.601s1.281.205,2.082.205c.391,0,.771-.018,1.14-.055.369-.036.708-.1,1.017-.191.309-.091.582-.207.819-.348.236-.141.421-.312.552-.512.132-.2.198-.432.198-.696,0-.373-.114-.674-.341-.901-.228-.227-.54-.412-.935-.553-.396-.141-.839-.255-1.331-.341-.492-.086-.997-.168-1.516-.246-.518-.077-1.024-.171-1.515-.28-.492-.109-.935-.255-1.331-.437-.396-.182-.708-.423-.935-.723-.228-.3-.341-.678-.341-1.133,0-.318.077-.623.232-.915.155-.291.407-.553.758-.785.35-.232.814-.414,1.392-.546s1.299-.198,2.164-.198c.873,0,1.59.078,2.15.232.56.155.997.357,1.311.607.314.25.53.517.648.799.118.282.177.551.177.806v.287h-.956v-.314c0-.273-.121-.528-.362-.764s-.598-.432-1.072-.587c-.473-.155-1.069-.232-1.788-.232-.792,0-1.461.061-2.007.184s-.96.298-1.243.526c-.282.228-.423.514-.423.86,0,.327.116.592.348.792.232.2.546.362.942.485.396.123.837.227,1.324.314.487.087.99.171,1.509.253.518.082,1.024.18,1.515.293.492.114.935.269,1.331.464.396.196.71.446.942.751.232.305.348.69.348,1.154,0,.692-.198,1.242-.594,1.652-.396.41-.949.701-1.659.874-.71.173-1.529.259-2.457.259Z" fill="#fff" stroke-width="0"/></svg>